<svg width="15" height="15" viewBox="0 0 15 15" fill="none" xmlns="http://www.w3.org/2000/svg">
<path d="M6.06423 1.12486C5.71852 1.22154 5.44313 1.45005 5.282 1.78111L5.17067 2.00376L5.16188 2.4813L5.15309 2.95884H3.45094C1.55544 2.95884 1.61989 2.95298 1.47633 3.16099C1.37966 3.30454 1.37673 3.55357 1.47341 3.69126C1.6111 3.89634 1.65212 3.91099 2.18239 3.91978L2.66286 3.92857L2.67751 4.08091C2.68923 4.16587 2.8152 6.04673 2.95876 8.26158C3.16676 11.4432 3.23122 12.3338 3.27516 12.495C3.36012 12.8143 3.53005 13.1102 3.76442 13.3446C3.99587 13.576 4.20387 13.7079 4.51735 13.8221L4.73122 13.9012L7.41774 13.91C10.3943 13.9188 10.3299 13.9217 10.7312 13.7284C11.2498 13.4764 11.6511 12.9754 11.7771 12.4129C11.7918 12.3456 11.9148 10.4911 12.0525 8.29087C12.1902 6.09068 12.3103 4.20982 12.322 4.11021L12.3367 3.9315L12.8172 3.91978C13.2478 3.91099 13.3035 3.90513 13.3797 3.84947C13.5261 3.74107 13.5935 3.61216 13.5935 3.43345C13.5935 3.23423 13.5144 3.09654 13.3562 3.01744C13.2478 2.96177 13.1775 2.95884 11.5457 2.95884H9.84938L9.83766 2.4813L9.82887 2.00376L9.71755 1.78111C9.55348 1.44419 9.27809 1.21861 8.92067 1.12486C8.71852 1.06919 6.26051 1.07212 6.06423 1.12486ZM8.73903 2.11216C8.86208 2.16783 8.88844 2.24986 8.90016 2.61314L8.91188 2.95884H7.49977H6.08766L6.09938 2.61314C6.1111 2.25572 6.13747 2.17076 6.25465 2.11216C6.33962 2.07115 8.64821 2.07115 8.73903 2.11216ZM11.3523 3.96373C11.3582 3.96665 11.2439 5.81529 11.1033 8.07115C10.9129 11.0858 10.8338 12.2049 10.8015 12.2987C10.7019 12.5829 10.4646 12.8143 10.1804 12.9051C10.0486 12.9461 9.73805 12.9491 7.44118 12.9432L4.84841 12.9344L4.71364 12.867C4.49977 12.7645 4.34743 12.6122 4.24782 12.41L4.157 12.2254L3.92555 8.30259C3.79958 6.14634 3.68825 4.27427 3.67653 4.1483L3.65895 3.91685L7.5027 3.93443C9.61794 3.94615 11.3494 3.95787 11.3523 3.96373Z" fill="black"/>
<path d="M5.44934 5.48145C5.40833 5.49609 5.34387 5.54004 5.30872 5.5752C5.15051 5.72168 5.15637 5.59277 5.15637 8.4375C5.15637 11.3613 5.14465 11.1709 5.34973 11.3291C5.50501 11.4463 5.74524 11.4463 5.90051 11.3291C6.10559 11.1709 6.09387 11.3643 6.09387 8.42871V5.78027L6.02942 5.68359C5.99133 5.63086 5.92688 5.56055 5.88294 5.52832C5.79212 5.46094 5.55774 5.43457 5.44934 5.48145Z" fill="black"/>
<path d="M7.32434 5.48145C7.28333 5.49609 7.21887 5.54004 7.18372 5.5752C7.02551 5.72168 7.03137 5.59277 7.03137 8.4375C7.03137 11.3613 7.01965 11.1709 7.22473 11.3291C7.38001 11.4463 7.62024 11.4463 7.77551 11.3291C7.98059 11.1709 7.96887 11.3643 7.96887 8.42871V5.78027L7.90442 5.68359C7.86633 5.63086 7.80188 5.56055 7.75794 5.52832C7.66712 5.46094 7.43274 5.43457 7.32434 5.48145Z" fill="black"/>
<path d="M9.19934 5.48145C9.15833 5.49609 9.09387 5.54004 9.05872 5.5752C8.90051 5.72168 8.90637 5.59277 8.90637 8.4375C8.90637 11.3613 8.89465 11.1709 9.09973 11.3291C9.19055 11.3965 9.23743 11.4111 9.37512 11.4111C9.51282 11.4111 9.55969 11.3965 9.65051 11.3291C9.85559 11.1709 9.84387 11.3643 9.84387 8.42871V5.78027L9.77942 5.68359C9.74133 5.63086 9.67688 5.56055 9.63294 5.52832C9.54212 5.46094 9.30774 5.43457 9.19934 5.48145Z" fill="black"/>
</svg>
