<svg width="15" height="15" viewBox="0 0 15 15" fill="none" xmlns="http://www.w3.org/2000/svg">
<g clip-path="url(#clip0_63_239)">
<path d="M12.7441 0.0615234C12.5947 0.120117 12.3281 0.37793 9.14941 3.55371C7.25977 5.44043 5.70117 7.01953 5.68652 7.06055C5.63672 7.18359 5.24414 9.20508 5.24414 9.33105C5.24414 9.55957 5.44043 9.75586 5.66895 9.75586C5.79492 9.75586 7.81641 9.36328 7.93945 9.31348C7.98047 9.29883 9.55957 7.74023 11.4463 5.85059C14.7715 2.52246 14.877 2.41113 14.9414 2.24121C14.9941 2.09473 15.0029 2.02148 14.9941 1.80176C14.9766 1.40625 14.9209 1.32129 14.2998 0.700195C13.6729 0.0703125 13.5967 0.0234375 13.1836 0.00878906C12.9551 0 12.876 0.0117188 12.7441 0.0615234ZM13.6436 1.35352C13.9277 1.6377 14.0918 1.82227 14.0918 1.86035C14.0918 1.89551 13.9863 2.02441 13.8281 2.18262L13.5645 2.44629L13.0605 1.93945L12.5537 1.43555L12.8174 1.17188C12.9727 1.01367 13.1045 0.908203 13.1396 0.908203C13.1748 0.908203 13.3652 1.0752 13.6436 1.35352ZM10.2246 5.78613L7.5293 8.48438L6.9082 8.60742C6.56836 8.6748 6.28418 8.72461 6.27832 8.71875C6.27246 8.71289 6.32812 8.42871 6.39844 8.08594L6.52734 7.46191L9.21973 4.76953L11.9092 2.08008L12.4131 2.58398L12.9199 3.09082L10.2246 5.78613Z" fill="black"/>
<path d="M1.11035 2.46973C0.583008 2.64844 0.205078 3.04395 0.046875 3.57129C0.00585938 3.71484 0 4.21582 0 8.7041C0 13.5615 0 13.6787 0.0585938 13.8604C0.213867 14.3701 0.597656 14.7568 1.11035 14.9326L1.30371 14.9971L6.28711 15C10.7842 15 11.2852 14.9941 11.4287 14.9531C11.9707 14.792 12.3721 14.3936 12.5479 13.8428L12.6123 13.6377V10.2246C12.6123 6.86426 12.6123 6.80859 12.5537 6.71484C12.3896 6.44238 11.9648 6.4248 11.7832 6.68262C11.7363 6.74707 11.7334 7.01953 11.7188 10.1514L11.7041 13.5498L11.625 13.6963C11.5342 13.8691 11.458 13.9424 11.2793 14.0361L11.1475 14.1064H6.29883H1.4502L1.30371 14.0273C1.13086 13.9365 1.05762 13.8604 0.963867 13.6816L0.893555 13.5498V8.70117V3.85254L0.972656 3.70605C1.06348 3.5332 1.13965 3.45996 1.31836 3.36621L1.4502 3.2959L4.84863 3.28125C7.98047 3.2666 8.25293 3.26367 8.31738 3.2168C8.44043 3.12891 8.49609 3.01465 8.49609 2.8418C8.49609 2.66016 8.4375 2.54883 8.30273 2.45801C8.2207 2.40527 8.09766 2.40234 4.76074 2.40234L1.30371 2.40527L1.11035 2.46973Z" fill="black"/>
</g>
<defs>
<clipPath id="clip0_63_239">
<rect width="15" height="15" fill="white"/>
</clipPath>
</defs>
</svg>
