<?xml version="1.0" standalone="no"?>
<!DOCTYPE svg PUBLIC "-//W3C//DTD SVG 20010904//EN"
 "http://www.w3.org/TR/2001/REC-SVG-20010904/DTD/svg10.dtd">
<svg version="1.0" xmlns="http://www.w3.org/2000/svg"
 width="512.000000pt" height="512.000000pt" viewBox="0 0 512.000000 512.000000"
 preserveAspectRatio="xMidYMid meet">
<metadata>
Created by potrace 1.16, written by Peter Selinger 2001-2019
</metadata>
<g transform="translate(0.000000,512.000000) scale(0.100000,-0.100000)"
fill="#000000" stroke="none">
<path d="M2330 5014 c-288 -35 -508 -92 -750 -196 -412 -176 -779 -476 -1039
-848 -215 -308 -352 -650 -418 -1045 -26 -157 -26 -572 0 -730 52 -312 157
-612 300 -858 379 -651 1002 -1083 1742 -1208 155 -26 466 -36 629 -20 718 70
1357 441 1778 1032 216 303 360 659 425 1054 26 158 26 573 0 730 -91 546
-321 1000 -697 1375 -372 372 -829 604 -1370 696 -91 15 -515 28 -600 18z
m520 -330 c679 -89 1290 -521 1612 -1141 161 -309 239 -629 239 -983 0 -108
-6 -220 -16 -286 -101 -703 -529 -1303 -1157 -1624 -445 -228 -963 -291 -1453
-178 -600 139 -1129 551 -1417 1105 -161 308 -239 631 -239 983 0 198 16 331
62 520 145 589 557 1107 1101 1386 397 203 823 276 1268 218z"/>
<path d="M1710 3475 c-281 -77 -309 -467 -42 -588 70 -31 179 -30 253 5 112
51 170 136 177 259 6 102 -14 162 -79 233 -80 87 -196 121 -309 91z"/>
<path d="M3263 3480 c-99 -21 -197 -107 -229 -202 -22 -68 -16 -187 14 -245
76 -147 267 -212 414 -140 65 32 121 90 151 156 34 72 31 188 -6 263 -62 126
-207 197 -344 168z"/>
<path d="M2395 2404 c-444 -63 -773 -265 -1003 -614 -48 -72 -57 -92 -60 -142
-5 -70 20 -119 79 -148 47 -24 86 -25 140 -4 34 14 50 32 96 103 98 152 241
284 397 367 165 88 316 124 516 124 200 0 351 -36 516 -124 46 -25 110 -65
141 -89 88 -67 203 -193 257 -280 36 -57 59 -83 87 -97 75 -39 161 -17 206 51
22 33 25 47 21 97 -3 50 -12 69 -60 142 -202 308 -500 511 -863 591 -87 19
-392 34 -470 23z"/>
</g>
</svg>
