<svg width="683" height="371" viewBox="0 0 683 371" fill="none" xmlns="http://www.w3.org/2000/svg">
<g clip-path="url(#clip0_9_2)">
<path d="M16.6667 2.53338C10.2667 5.46671 5.06666 10.5334 2.13333 16.5334C-0.933335 22.9334 -0.666669 35.2 2.66666 41.8667C4.4 45.6 56.6667 98.6667 165.6 207.6C337.467 379.2 328.267 370.667 341.333 370.667C354.4 370.667 345.2 379.2 517.067 207.6C626 98.6667 678.267 45.6 680 41.8667C683.333 35.2 683.6 22.9334 680.533 16.5334C674.133 2.93338 656.933 -3.73329 642.933 2.00004C639.467 3.46671 594.667 47.3334 489.733 152.4L341.333 300.667L193.067 152.4C88 47.3334 43.2 3.46671 39.7333 2.00004C33.0667 -0.666624 23.2 -0.533291 16.6667 2.53338Z" fill="#52595B"/>
</g>
<defs>
<clipPath id="clip0_9_2">
<rect width="682.667" height="370.667" fill="white"/>
</clipPath>
</defs>
</svg>
