<svg width="19" height="19" viewBox="0 0 19 19" fill="none" xmlns="http://www.w3.org/2000/svg">
<path d="M18.6729 9.76452C18.6729 14.6975 14.6739 18.6965 9.74191 18.6965C4.80891 18.6965 0.810913 14.6975 0.810913 9.76452C0.810913 4.83152 4.80891 0.832518 9.74191 0.832518C14.6739 0.832518 18.6729 4.83152 18.6729 9.76452Z" fill="white"/>
<path d="M9.73727 18.6541C4.83227 18.6541 0.857265 14.6771 0.857265 9.77313C0.857265 4.86913 4.83227 0.893126 9.73727 0.893126C14.6413 0.893126 18.6173 4.86913 18.6173 9.77313C18.6173 14.6771 14.6413 18.6541 9.73727 18.6541ZM9.73727 0.733126C4.74427 0.733126 0.697266 4.78113 0.697266 9.77313C0.697266 14.7651 4.74427 18.8131 9.73727 18.8131C14.7303 18.8131 18.7773 14.7651 18.7773 9.77313C18.7773 4.78113 14.7303 0.733126 9.73727 0.733126Z" fill="#423F41"/>
<mask id="mask0_1_860" style="mask-type:luminance" maskUnits="userSpaceOnUse" x="5" y="9" width="11" height="8">
<path d="M5.61633 16.246H15.0763V9.89699H5.61633V16.246Z" fill="white"/>
</mask>
<g mask="url(#mask0_1_860)">
<path d="M12.1679 6.3602C12.1679 6.1362 11.9859 5.9552 11.7629 5.9552H-1.71805C-3.35105 5.9552 -4.68005 4.6262 -4.68005 2.9932C-4.68005 2.1752 -4.34805 1.4362 -3.81205 0.8992C-3.27505 0.3642 -2.53405 0.0312004 -1.71805 0.0312004H11.7629V0.144201H-1.71805C-3.28905 0.144201 -4.56605 1.4232 -4.56605 2.9932C-4.56605 4.5632 -3.28905 5.8412 -1.71805 5.8412H11.7629C12.0489 5.8412 12.2819 6.0742 12.2819 6.3602C12.2819 6.6442 12.0489 6.8782 11.7629 6.8782H-1.71805C-3.28905 6.8782 -4.56605 8.1552 -4.56605 9.7252C-4.56605 11.2962 -3.28905 12.5742 -1.71805 12.5742H11.7629C12.0489 12.5742 12.2819 12.8062 12.2819 13.0922C12.2819 13.3792 12.0489 13.6112 11.7629 13.6112H-1.71805C-3.28905 13.6112 -4.56605 14.8882 -4.56605 16.4602C-4.56605 18.0302 -3.28905 19.3072 -1.71805 19.3072H11.7629C12.0489 19.3072 12.2819 19.5402 12.2819 19.8252C12.2819 19.9682 12.2239 20.0972 12.1289 20.1912C12.0349 20.2862 11.9059 20.3432 11.7629 20.3432H-1.71805V20.2302H11.7629C11.9859 20.2302 12.1679 20.0482 12.1679 19.8252C12.1679 19.6022 11.9859 19.4212 11.7629 19.4212H-1.71805C-3.35105 19.4212 -4.68005 18.0922 -4.68005 16.4602C-4.68005 14.8272 -3.35105 13.4982 -1.71805 13.4982H11.7629C11.9859 13.4982 12.1679 13.3162 12.1679 13.0922C12.1679 12.8692 11.9859 12.6872 11.7629 12.6872H-1.71805C-3.35105 12.6872 -4.68005 11.3602 -4.68005 9.7252C-4.68005 8.0922 -3.35105 6.7632 -1.71805 6.7632H11.7629C11.9859 6.7632 12.1679 6.5822 12.1679 6.3602Z" fill="#3A3638"/>
</g>
<mask id="mask1_1_860" style="mask-type:luminance" maskUnits="userSpaceOnUse" x="5" y="9" width="11" height="8">
<path d="M5.61633 16.246H15.0763V9.89699H5.61633V16.246Z" fill="white"/>
</mask>
<g mask="url(#mask1_1_860)">
<path d="M14.6113 6.36023C14.6113 4.78923 13.3333 3.51123 11.7623 3.51123H-1.71869C-2.00469 3.51123 -2.23669 3.27923 -2.23669 2.99323C-2.23669 2.70723 -2.00469 2.47423 -1.71869 2.47423H11.7623V2.58823H-1.71869C-1.94169 2.58823 -2.1237 2.76923 -2.1237 2.99323C-2.1237 3.21623 -1.94169 3.39823 -1.71869 3.39823H11.7623C13.3973 3.39823 14.7243 4.72723 14.7243 6.36023C14.7243 7.99323 13.3973 9.32223 11.7623 9.32223H-1.71869C-1.94169 9.32223 -2.1237 9.50323 -2.1237 9.72523C-2.1237 9.83823 -2.07769 9.93923 -2.00469 10.0112C-1.93169 10.0862 -1.83069 10.1312 -1.71869 10.1312H11.7623C13.3973 10.1312 14.7243 11.4602 14.7243 13.0922C14.7243 14.7252 13.3973 16.0542 11.7623 16.0542H-1.71869C-1.94169 16.0542 -2.1237 16.2362 -2.1237 16.4602C-2.1237 16.6812 -1.94169 16.8632 -1.71869 16.8632H11.7623C13.3973 16.8632 14.7243 18.1922 14.7243 19.8252C14.7243 21.4592 13.3973 22.7872 11.7623 22.7872H-1.71869V22.6732H11.7623C13.3333 22.6732 14.6113 21.3952 14.6113 19.8252C14.6113 18.2552 13.3333 16.9772 11.7623 16.9772H-1.71869C-2.00469 16.9772 -2.23669 16.7442 -2.23669 16.4602C-2.23669 16.1732 -2.00469 15.9412 -1.71869 15.9412H11.7623C13.3333 15.9412 14.6113 14.6632 14.6113 13.0922C14.6113 12.3072 14.2923 11.5942 13.7763 11.0802C13.2593 10.5642 12.5483 10.2442 11.7623 10.2442H-1.71869C-2.00469 10.2442 -2.23669 10.0112 -2.23669 9.72523C-2.23669 9.44123 -2.00469 9.20823 -1.71869 9.20823H11.7623C13.3333 9.20823 14.6113 7.93023 14.6113 6.36023Z" fill="#3A3638"/>
</g>
<mask id="mask2_1_860" style="mask-type:luminance" maskUnits="userSpaceOnUse" x="5" y="9" width="11" height="8">
<path d="M5.61633 16.246H15.0763V9.89699H5.61633V16.246Z" fill="white"/>
</mask>
<g mask="url(#mask2_1_860)">
<path d="M-1.71824 8.9022V8.9032H11.7628V8.9022C13.1658 8.9022 14.3058 7.7612 14.3058 6.3602C14.3058 4.9572 13.1658 3.8172 11.7628 3.8172H-1.71824C-2.17224 3.8172 -2.54224 3.4472 -2.54224 2.9932C-2.54224 2.5392 -2.17224 2.1692 -1.71824 2.1692H11.7628V2.2832H-1.71824C-2.11024 2.2832 -2.42824 2.6012 -2.42824 2.9932C-2.42824 3.3842 -2.11024 3.7032 -1.71824 3.7032H11.7628C13.2278 3.7032 14.4198 4.8952 14.4198 6.3602C14.4198 7.8242 13.2278 9.0152 11.7628 9.0152V9.0162H-1.71824V9.0152C-2.11024 9.0152 -2.42824 9.3342 -2.42824 9.7252C-2.42824 10.1172 -2.11024 10.4362 -1.71824 10.4362H11.7628C13.2278 10.4362 14.4198 11.6282 14.4198 13.0922C14.4198 14.5572 13.2278 15.7492 11.7628 15.7492H-1.71824C-2.11024 15.7492 -2.42824 16.0682 -2.42824 16.4602C-2.42824 16.8512 -2.11024 17.1692 -1.71824 17.1692H11.7628C13.2278 17.1692 14.4198 18.3612 14.4198 19.8252C14.4198 21.2902 13.2278 22.4812 11.7628 22.4812H-1.71824V22.3682H11.7628C13.1658 22.3682 14.3058 21.2272 14.3058 19.8252C14.3058 18.4232 13.1658 17.2822 11.7628 17.2822H-1.71824C-2.17224 17.2822 -2.54224 16.9132 -2.54224 16.4602C-2.54224 16.0052 -2.17224 15.6352 -1.71824 15.6352H11.7628C13.1658 15.6352 14.3058 14.4952 14.3058 13.0922C14.3058 11.6902 13.1658 10.5492 11.7628 10.5492H-1.71824C-2.17224 10.5492 -2.54224 10.1802 -2.54224 9.7252C-2.54224 9.2712 -2.17224 8.9022 -1.71824 8.9022Z" fill="#3A3638"/>
</g>
<mask id="mask3_1_860" style="mask-type:luminance" maskUnits="userSpaceOnUse" x="5" y="9" width="11" height="8">
<path d="M5.61633 16.246H15.0763V9.89699H5.61633V16.246Z" fill="white"/>
</mask>
<g mask="url(#mask3_1_860)">
<path d="M14.0005 6.36021C14.0005 5.12521 12.9975 4.12221 11.7625 4.12221H-1.71853C-2.34153 4.12221 -2.84753 3.61621 -2.84753 2.99321C-2.84753 2.37021 -2.34153 1.86421 -1.71853 1.86421H11.7625V1.97721H-1.71853C-2.27853 1.97721 -2.73353 2.43221 -2.73353 2.99321C-2.73353 3.27221 -2.62053 3.52621 -2.43653 3.71021C-2.25253 3.89421 -1.99853 4.00821 -1.71853 4.00821H11.7625C13.0605 4.00821 14.1145 5.06321 14.1145 6.36021C14.1145 7.65621 13.0605 8.71021 11.7625 8.71021H-1.71853C-2.27853 8.71021 -2.73353 9.16621 -2.73353 9.72521C-2.73353 10.2862 -2.27853 10.7412 -1.71853 10.7412H11.7625C13.0605 10.7412 14.1145 11.7972 14.1145 13.0922C14.1145 14.3882 13.0605 15.4442 11.7625 15.4442H-1.71853C-2.27853 15.4442 -2.73353 15.8992 -2.73353 16.4602C-2.73353 17.0182 -2.27853 17.4752 -1.71853 17.4752H11.7625C13.0605 17.4752 14.1145 18.5292 14.1145 19.8252C14.1145 21.1222 13.0605 22.1762 11.7625 22.1762H-1.71853V22.0632H11.7625C12.9975 22.0632 14.0005 21.0592 14.0005 19.8252C14.0005 18.5912 12.9975 17.5892 11.7625 17.5892H-1.71853C-2.34153 17.5892 -2.84753 17.0812 -2.84753 16.4602C-2.84753 15.8372 -2.34153 15.3302 -1.71853 15.3302H11.7625C12.9975 15.3302 14.0005 14.3262 14.0005 13.0922C14.0005 11.8592 12.9975 10.8542 11.7625 10.8542H-1.71853C-2.34153 10.8542 -2.84753 10.3482 -2.84753 9.72521C-2.84753 9.10321 -2.34153 8.59621 -1.71853 8.59621H11.7625C12.9975 8.59621 14.0005 7.59321 14.0005 6.36021Z" fill="#3A3638"/>
</g>
<mask id="mask4_1_860" style="mask-type:luminance" maskUnits="userSpaceOnUse" x="5" y="9" width="11" height="8">
<path d="M5.61633 16.246H15.0763V9.89699H5.61633V16.246Z" fill="white"/>
</mask>
<g mask="url(#mask4_1_860)">
<path d="M13.6953 6.36022C13.6953 5.82822 13.4783 5.34422 13.1293 4.99422C12.7783 4.64422 12.2953 4.42722 11.7623 4.42722H-1.71871C-2.50971 4.42722 -3.15271 3.78422 -3.15271 2.99322C-3.15271 2.20222 -2.50971 1.55822 -1.71871 1.55822H11.7623V1.67222H-1.71871C-2.44671 1.67222 -3.03871 2.26422 -3.03871 2.99322C-3.03871 3.35722 -2.89071 3.68722 -2.65271 3.92622C-2.41271 4.16722 -2.08271 4.31422 -1.71871 4.31422H11.7623C12.8913 4.31422 13.8093 5.23222 13.8093 6.36022C13.8093 7.48822 12.8913 8.40522 11.7623 8.40522H-1.71871C-2.44671 8.40522 -3.03871 8.99722 -3.03871 9.72522C-3.03871 10.4542 -2.44671 11.0472 -1.71871 11.0472H11.7623C12.8913 11.0472 13.8093 11.9642 13.8093 13.0922C13.8093 14.2202 12.8913 15.1382 11.7623 15.1382H-1.71871C-2.44671 15.1382 -3.03871 15.7312 -3.03871 16.4602C-3.03871 17.1882 -2.44671 17.7802 -1.71871 17.7802H11.7623C12.8913 17.7802 13.8093 18.6972 13.8093 19.8252C13.8093 20.9532 12.8913 21.8712 11.7623 21.8712H-1.71871V21.7572H11.7623C12.8283 21.7572 13.6953 20.8902 13.6953 19.8252C13.6953 18.7602 12.8283 17.8932 11.7623 17.8932H-1.71871C-2.50971 17.8932 -3.15271 17.2512 -3.15271 16.4602C-3.15271 15.6692 -2.50971 15.0252 -1.71871 15.0252H11.7623C12.8283 15.0252 13.6953 14.1582 13.6953 13.0922C13.6953 12.0272 12.8283 11.1612 11.7623 11.1612H-1.71871C-2.50971 11.1612 -3.15271 10.5162 -3.15271 9.72522C-3.15271 8.93422 -2.50971 8.29122 -1.71871 8.29122H11.7623C12.8283 8.29122 13.6953 7.42422 13.6953 6.36022Z" fill="#3A3638"/>
</g>
<mask id="mask5_1_860" style="mask-type:luminance" maskUnits="userSpaceOnUse" x="5" y="9" width="11" height="8">
<path d="M5.61633 16.246H15.0763V9.89699H5.61633V16.246Z" fill="white"/>
</mask>
<g mask="url(#mask5_1_860)">
<path d="M13.3901 6.36019C13.3901 5.46319 12.6611 4.73219 11.7631 4.73219H-1.71786C-2.67786 4.73219 -3.45886 3.95219 -3.45886 2.99319C-3.45886 2.03419 -2.67786 1.25419 -1.71786 1.25419H11.7631V1.36719H-1.71786C-2.61586 1.36719 -3.34586 2.09619 -3.34586 2.99319C-3.34586 3.88919 -2.61586 4.61919 -1.71786 4.61919H11.7631C12.7231 4.61919 13.5041 5.40019 13.5041 6.36019C13.5041 7.31919 12.7231 8.09919 11.7631 8.09919H-1.71786C-2.61586 8.09919 -3.34586 8.82919 -3.34586 9.72519C-3.34586 10.6232 -2.61586 11.3532 -1.71786 11.3532H11.7631C12.7231 11.3532 13.5041 12.1332 13.5041 13.0922C13.5041 14.0512 12.7231 14.8322 11.7631 14.8322H-1.71786C-2.61586 14.8322 -3.34586 15.5612 -3.34586 16.4602C-3.34586 17.3562 -2.61586 18.0862 -1.71786 18.0862H11.7631C12.7231 18.0862 13.5041 18.8662 13.5041 19.8252C13.5041 20.7852 12.7231 21.5662 11.7631 21.5662H-1.71786V21.4532H11.7631C12.6611 21.4532 13.3901 20.7222 13.3901 19.8252C13.3901 18.9282 12.6611 18.1992 11.7631 18.1992H-1.71786C-2.67786 18.1992 -3.45886 17.4192 -3.45886 16.4602C-3.45886 15.5002 -2.67786 14.7182 -1.71786 14.7182H11.7631C12.6611 14.7182 13.3901 13.9892 13.3901 13.0922C13.3901 12.1962 12.6611 11.4662 11.7631 11.4662H-1.71786C-2.67786 11.4662 -3.45886 10.6852 -3.45886 9.72519C-3.45886 8.76619 -2.67786 7.98619 -1.71786 7.98619H11.7631C12.6611 7.98619 13.3901 7.25619 13.3901 6.36019Z" fill="#3A3638"/>
</g>
<mask id="mask6_1_860" style="mask-type:luminance" maskUnits="userSpaceOnUse" x="5" y="9" width="11" height="8">
<path d="M5.61633 16.246H15.0763V9.89699H5.61633V16.246Z" fill="white"/>
</mask>
<g mask="url(#mask6_1_860)">
<path d="M13.085 6.36019C13.085 5.63119 12.492 5.03919 11.763 5.03919H-1.71804C-2.84604 5.03919 -3.76404 4.12119 -3.76404 2.99319C-3.76404 1.86519 -2.84604 0.948193 -1.71804 0.948193H11.763V1.06119H-1.71804C-2.78404 1.06119 -3.65104 1.92719 -3.65104 2.99319C-3.65104 4.05819 -2.78404 4.92519 -1.71804 4.92519H11.763C12.555 4.92519 13.198 5.56919 13.198 6.36019C13.198 7.15119 12.555 7.79419 11.763 7.79419H-1.71804C-2.78404 7.79419 -3.65104 8.66119 -3.65104 9.72519C-3.65104 10.7912 -2.78404 11.6582 -1.71804 11.6582H11.763C12.555 11.6582 13.198 12.3012 13.198 13.0922C13.198 13.4872 13.037 13.8462 12.777 14.1062C12.518 14.3662 12.159 14.5272 11.763 14.5272H-1.71804C-2.78404 14.5272 -3.65104 15.3942 -3.65104 16.4602C-3.65104 17.5242 -2.78404 18.3902 -1.71804 18.3902H11.763C12.555 18.3902 13.198 19.0342 13.198 19.8252C13.198 20.6162 12.555 21.2602 11.763 21.2602H-1.71804V21.1472H11.763C12.492 21.1472 13.085 20.5532 13.085 19.8252C13.085 19.0962 12.492 18.5052 11.763 18.5052H-1.71804C-2.84604 18.5052 -3.76404 17.5882 -3.76404 16.4602C-3.76404 15.8952 -3.53504 15.3832 -3.16404 15.0132C-2.79404 14.6422 -2.28204 14.4142 -1.71804 14.4142H11.763C12.492 14.4142 13.085 13.8212 13.085 13.0922C13.085 12.3642 12.492 11.7712 11.763 11.7712H-1.71804C-2.84604 11.7712 -3.76404 10.8532 -3.76404 9.72519C-3.76404 8.59719 -2.84604 7.68019 -1.71804 7.68019H11.763C12.492 7.68019 13.085 7.08919 13.085 6.36019Z" fill="#3A3638"/>
</g>
<mask id="mask7_1_860" style="mask-type:luminance" maskUnits="userSpaceOnUse" x="5" y="9" width="11" height="8">
<path d="M5.61633 16.246H15.0763V9.89699H5.61633V16.246Z" fill="white"/>
</mask>
<g mask="url(#mask7_1_860)">
<path d="M12.7783 6.36022C12.7783 5.79922 12.3233 5.34422 11.7623 5.34422H-1.7187C-3.0147 5.34422 -4.0697 4.28922 -4.0697 2.99322C-4.0697 1.69722 -3.0147 0.641224 -1.7187 0.641224H11.7623V0.756224H-1.7187C-2.9517 0.756224 -3.9557 1.75922 -3.9557 2.99322C-3.9557 4.22622 -2.9517 5.23022 -1.7187 5.23022H11.7623C12.3853 5.23022 12.8923 5.73722 12.8923 6.36022C12.8923 6.98122 12.3853 7.48922 11.7623 7.48922H-1.7187C-2.9517 7.48922 -3.9557 8.49222 -3.9557 9.72522C-3.9557 10.9612 -2.9517 11.9642 -1.7187 11.9642H11.7623C12.3853 11.9642 12.8923 12.4692 12.8923 13.0922C12.8923 13.7152 12.3853 14.2212 11.7623 14.2212H-1.7187C-2.9517 14.2212 -3.9557 15.2242 -3.9557 16.4602C-3.9557 17.6932 -2.9517 18.6962 -1.7187 18.6962H11.7623C12.3853 18.6962 12.8923 19.2032 12.8923 19.8252C12.8923 20.4482 12.3853 20.9542 11.7623 20.9542H-1.7187V20.8402H11.7623C12.3233 20.8402 12.7783 20.3852 12.7783 19.8252C12.7783 19.2652 12.3233 18.8092 11.7623 18.8092H-1.7187C-3.0147 18.8092 -4.0697 17.7562 -4.0697 16.4602C-4.0697 15.1622 -3.0147 14.1082 -1.7187 14.1082H11.7623C12.3233 14.1082 12.7783 13.6522 12.7783 13.0922C12.7783 12.5322 12.3233 12.0772 11.7623 12.0772H-1.7187C-3.0147 12.0772 -4.0697 11.0222 -4.0697 9.72522C-4.0697 8.42922 -3.0147 7.37622 -1.7187 7.37622H11.7623C12.3233 7.37622 12.7783 6.92022 12.7783 6.36022Z" fill="#3A3638"/>
</g>
<mask id="mask8_1_860" style="mask-type:luminance" maskUnits="userSpaceOnUse" x="5" y="9" width="11" height="8">
<path d="M5.61633 16.246H15.0763V9.89699H5.61633V16.246Z" fill="white"/>
</mask>
<g mask="url(#mask8_1_860)">
<path d="M12.4731 6.3602C12.4731 5.9682 12.1561 5.6492 11.7631 5.6492H-1.71788C-3.18288 5.6492 -4.37488 4.4582 -4.37488 2.9932C-4.37488 1.5282 -3.18288 0.3372 -1.71788 0.3372H11.7631V0.450201H-1.71788C-3.12088 0.450201 -4.26088 1.5902 -4.26088 2.9932C-4.26088 4.3952 -3.12088 5.5362 -1.71788 5.5362H11.7631C12.2181 5.5362 12.5871 5.9052 12.5871 6.3602C12.5871 6.8132 12.2181 7.1822 11.7631 7.1822H-1.71788C-3.12088 7.1822 -4.26088 8.3242 -4.26088 9.7252C-4.26088 11.1282 -3.12088 12.2682 -1.71788 12.2682H11.7631C12.2181 12.2682 12.5871 12.6382 12.5871 13.0922C12.5871 13.5472 12.2181 13.9172 11.7631 13.9172H-1.71788C-3.12088 13.9172 -4.26088 15.0562 -4.26088 16.4602C-4.26088 17.8612 -3.12088 19.0022 -1.71788 19.0022L11.7631 19.0032C12.2181 19.0032 12.5871 19.3712 12.5871 19.8252C12.5871 20.0532 12.4941 20.2582 12.3451 20.4072C12.1961 20.5572 11.9911 20.6492 11.7631 20.6492H-1.71788V20.5362H11.7631C12.1561 20.5362 12.4731 20.2162 12.4731 19.8252C12.4731 19.4332 12.1561 19.1152 11.7631 19.1152L-1.71788 19.1162C-3.18288 19.1162 -4.37488 17.9232 -4.37488 16.4602C-4.37488 14.9942 -3.18288 13.8022 -1.71788 13.8022H11.7631C12.1561 13.8022 12.4731 13.4842 12.4731 13.0922C12.4731 12.7012 12.1561 12.3822 11.7631 12.3822H-1.71788C-3.18288 12.3822 -4.37488 11.1902 -4.37488 9.7252C-4.37488 8.2612 -3.18288 7.0692 -1.71788 7.0692H11.7631C12.1561 7.0692 12.4731 6.7522 12.4731 6.3602Z" fill="#3A3638"/>
</g>
<mask id="mask9_1_860" style="mask-type:luminance" maskUnits="userSpaceOnUse" x="5" y="3" width="11" height="7">
<path d="M5.61633 9.80898H15.0763V3.45998H5.61633V9.80898Z" fill="white"/>
</mask>
<g mask="url(#mask9_1_860)">
<path d="M12.1679 -0.0772953C12.1679 -0.301295 11.9859 -0.482295 11.7629 -0.482295H-1.71805C-3.35105 -0.482295 -4.68005 -1.8113 -4.68005 -3.4443C-4.68005 -4.2623 -4.34805 -5.0013 -3.81205 -5.5383C-3.27505 -6.0743 -2.53405 -6.4063 -1.71805 -6.4063H11.7629V-6.29329H-1.71805C-3.28905 -6.29329 -4.56605 -5.0143 -4.56605 -3.4443C-4.56605 -1.8743 -3.28905 -0.597296 -1.71805 -0.597296H11.7629C12.0489 -0.597296 12.2819 -0.363295 12.2819 -0.0772953C12.2819 0.206705 12.0489 0.439705 11.7629 0.439705H-1.71805C-3.28905 0.439705 -4.56605 1.7177 -4.56605 3.2877C-4.56605 4.8587 -3.28905 6.1367 -1.71805 6.1367H11.7629C12.0489 6.1367 12.2819 6.3687 12.2819 6.6547C12.2819 6.9417 12.0489 7.1737 11.7629 7.1737H-1.71805C-3.28905 7.1737 -4.56605 8.4507 -4.56605 10.0217C-4.56605 11.5927 -3.28905 12.8697 -1.71805 12.8697H11.7629C12.0489 12.8697 12.2819 13.1027 12.2819 13.3877C12.2819 13.5297 12.2239 13.6597 12.1289 13.7537C12.0349 13.8487 11.9059 13.9057 11.7629 13.9057H-1.71805V13.7927H11.7629C11.9859 13.7927 12.1679 13.6107 12.1679 13.3877C12.1679 13.1647 11.9859 12.9837 11.7629 12.9837H-1.71805C-3.35105 12.9837 -4.68005 11.6547 -4.68005 10.0217C-4.68005 8.3887 -3.35105 7.0607 -1.71805 7.0607H11.7629C11.9859 7.0607 12.1679 6.8787 12.1679 6.6547C12.1679 6.4317 11.9859 6.2497 11.7629 6.2497H-1.71805C-3.35105 6.2497 -4.68005 4.9217 -4.68005 3.2877C-4.68005 1.6547 -3.35105 0.325705 -1.71805 0.325705H11.7629C11.9859 0.325705 12.1679 0.144705 12.1679 -0.0772953Z" fill="#3A3638"/>
</g>
<mask id="mask10_1_860" style="mask-type:luminance" maskUnits="userSpaceOnUse" x="5" y="3" width="11" height="7">
<path d="M5.61633 9.80898H15.0763V3.45998H5.61633V9.80898Z" fill="white"/>
</mask>
<g mask="url(#mask10_1_860)">
<path d="M14.6113 -0.0772686C14.6113 -1.64827 13.3333 -2.92627 11.7623 -2.92627H-1.71869C-2.00469 -2.92627 -2.23669 -3.15827 -2.23669 -3.44427C-2.23669 -3.73027 -2.00469 -3.96327 -1.71869 -3.96327H11.7623V-3.84927H-1.71869C-1.94169 -3.84927 -2.1237 -3.66827 -2.1237 -3.44427C-2.1237 -3.22127 -1.94169 -3.03927 -1.71869 -3.03927H11.7623C13.3973 -3.03927 14.7243 -1.71127 14.7243 -0.0772686C14.7243 1.55573 13.3973 2.88373 11.7623 2.88373H-1.71869C-1.94169 2.88373 -2.1237 3.06573 -2.1237 3.28773C-2.1237 3.40073 -2.07769 3.50173 -2.00469 3.57373C-1.93169 3.64773 -1.83069 3.69373 -1.71869 3.69373H11.7623C13.3973 3.69373 14.7243 5.02273 14.7243 6.65473C14.7243 8.28773 13.3973 9.61673 11.7623 9.61673H-1.71869C-1.94169 9.61673 -2.1237 9.79873 -2.1237 10.0217C-2.1237 10.2437 -1.94169 10.4257 -1.71869 10.4257H11.7623C13.3973 10.4257 14.7243 11.7547 14.7243 13.3877C14.7243 15.0217 13.3973 16.3497 11.7623 16.3497H-1.71869V16.2357H11.7623C13.3333 16.2357 14.6113 14.9577 14.6113 13.3877C14.6113 11.8177 13.3333 10.5387 11.7623 10.5387H-1.71869C-2.00469 10.5387 -2.23669 10.3067 -2.23669 10.0217C-2.23669 9.73573 -2.00469 9.50273 -1.71869 9.50273H11.7623C13.3333 9.50273 14.6113 8.22573 14.6113 6.65473C14.6113 5.86973 14.2923 5.15673 13.7763 4.64173C13.2593 4.12673 12.5483 3.80673 11.7623 3.80673H-1.71869C-2.00469 3.80673 -2.23669 3.57373 -2.23669 3.28773C-2.23669 3.00273 -2.00469 2.77073 -1.71869 2.77073H11.7623C13.3333 2.77073 14.6113 1.49273 14.6113 -0.0772686Z" fill="#3A3638"/>
</g>
<mask id="mask11_1_860" style="mask-type:luminance" maskUnits="userSpaceOnUse" x="5" y="3" width="11" height="7">
<path d="M5.61633 9.80898H15.0763V3.45998H5.61633V9.80898Z" fill="white"/>
</mask>
<g mask="url(#mask11_1_860)">
<path d="M-1.71824 2.4637V2.4657H11.7628V2.4637C13.1658 2.4637 14.3058 1.3237 14.3058 -0.0772991C14.3058 -1.4803 13.1658 -2.6213 11.7628 -2.6213H-1.71824C-2.17224 -2.6213 -2.54224 -2.9903 -2.54224 -3.4443C-2.54224 -3.8983 -2.17224 -4.2683 -1.71824 -4.2683H11.7628V-4.1553H-1.71824C-2.11024 -4.1553 -2.42824 -3.8363 -2.42824 -3.4443C-2.42824 -3.0533 -2.11024 -2.7343 -1.71824 -2.7343H11.7628C13.2278 -2.7343 14.4198 -1.5433 14.4198 -0.0772991C14.4198 1.3867 13.2278 2.5777 11.7628 2.5777L-1.71824 2.5787C-2.11024 2.5787 -2.42824 2.8967 -2.42824 3.2877C-2.42824 3.6797 -2.11024 3.9977 -1.71824 3.9977H11.7628C13.2278 3.9977 14.4198 5.1907 14.4198 6.6547C14.4198 8.1197 13.2278 9.3117 11.7628 9.3117H-1.71824C-2.11024 9.3117 -2.42824 9.6307 -2.42824 10.0217C-2.42824 10.4127 -2.11024 10.7317 -1.71824 10.7317H11.7628C13.2278 10.7317 14.4198 11.9237 14.4198 13.3877C14.4198 14.8527 13.2278 16.0437 11.7628 16.0437H-1.71824V15.9307H11.7628C13.1658 15.9307 14.3058 14.7897 14.3058 13.3877C14.3058 11.9857 13.1658 10.8447 11.7628 10.8447H-1.71824C-2.17224 10.8447 -2.54224 10.4757 -2.54224 10.0217C-2.54224 9.5667 -2.17224 9.1977 -1.71824 9.1977H11.7628C13.1658 9.1977 14.3058 8.0577 14.3058 6.6547C14.3058 5.2527 13.1658 4.1117 11.7628 4.1117H-1.71824C-2.17224 4.1117 -2.54224 3.7427 -2.54224 3.2877C-2.54224 2.8337 -2.17224 2.4637 -1.71824 2.4637Z" fill="#3A3638"/>
</g>
<mask id="mask12_1_860" style="mask-type:luminance" maskUnits="userSpaceOnUse" x="5" y="3" width="11" height="7">
<path d="M5.61633 9.80898H15.0763V3.45998H5.61633V9.80898Z" fill="white"/>
</mask>
<g mask="url(#mask12_1_860)">
<path d="M14.0005 -0.0772915C14.0005 -1.31229 12.9975 -2.31529 11.7625 -2.31529H-1.71853C-2.34153 -2.31529 -2.84753 -2.82129 -2.84753 -3.44429C-2.84753 -4.06729 -2.34153 -4.57329 -1.71853 -4.57329H11.7625V-4.46029H-1.71853C-2.27853 -4.46029 -2.73353 -4.00529 -2.73353 -3.44429C-2.73353 -3.16529 -2.62053 -2.91129 -2.43653 -2.72729C-2.25253 -2.54429 -1.99853 -2.42929 -1.71853 -2.42929H11.7625C13.0605 -2.42929 14.1145 -1.37529 14.1145 -0.0772915C14.1145 1.21871 13.0605 2.27271 11.7625 2.27271H-1.71853C-2.27853 2.27271 -2.73353 2.72871 -2.73353 3.28771C-2.73353 3.84871 -2.27853 4.30371 -1.71853 4.30371H11.7625C13.0605 4.30371 14.1145 5.35971 14.1145 6.65471C14.1145 7.95071 13.0605 9.00571 11.7625 9.00571H-1.71853C-2.27853 9.00571 -2.73353 9.46071 -2.73353 10.0217C-2.73353 10.5807 -2.27853 11.0367 -1.71853 11.0367H11.7625C13.0605 11.0367 14.1145 12.0917 14.1145 13.3877C14.1145 14.6847 13.0605 15.7387 11.7625 15.7387H-1.71853V15.6247H11.7625C12.9975 15.6247 14.0005 14.6217 14.0005 13.3877C14.0005 12.1537 12.9975 11.1517 11.7625 11.1517H-1.71853C-2.34153 11.1517 -2.84753 10.6437 -2.84753 10.0217C-2.84753 9.39971 -2.34153 8.89271 -1.71853 8.89271H11.7625C12.9975 8.89271 14.0005 7.88871 14.0005 6.65471C14.0005 5.42171 12.9975 4.41671 11.7625 4.41671H-1.71853C-2.34153 4.41671 -2.84753 3.91071 -2.84753 3.28771C-2.84753 2.66571 -2.34153 2.15871 -1.71853 2.15871H11.7625C12.9975 2.15871 14.0005 1.15571 14.0005 -0.0772915Z" fill="#3A3638"/>
</g>
<mask id="mask13_1_860" style="mask-type:luminance" maskUnits="userSpaceOnUse" x="5" y="3" width="11" height="7">
<path d="M5.61633 9.80898H15.0763V3.45998H5.61633V9.80898Z" fill="white"/>
</mask>
<g mask="url(#mask13_1_860)">
<path d="M13.6953 -0.0772839C13.6953 -0.609284 13.4783 -1.09328 13.1293 -1.44428C12.7783 -1.79328 12.2953 -2.01028 11.7623 -2.01028H-1.71871C-2.50971 -2.01028 -3.15271 -2.65328 -3.15271 -3.44428C-3.15271 -4.23528 -2.50971 -4.87928 -1.71871 -4.87928H11.7623V-4.76528H-1.71871C-2.44671 -4.76528 -3.03871 -4.17328 -3.03871 -3.44428C-3.03871 -3.08028 -2.89071 -2.75028 -2.65271 -2.51128C-2.41271 -2.27128 -2.08271 -2.12428 -1.71871 -2.12428H11.7623C12.8913 -2.12428 13.8093 -1.20628 13.8093 -0.0772839C13.8093 1.05072 12.8913 1.96672 11.7623 1.96672H-1.71871C-2.44671 1.96672 -3.03871 2.55972 -3.03871 3.28772C-3.03871 4.01672 -2.44671 4.60972 -1.71871 4.60972H11.7623C12.8913 4.60972 13.8093 5.52672 13.8093 6.65472C13.8093 7.78272 12.8913 8.70072 11.7623 8.70072H-1.71871C-2.44671 8.70072 -3.03871 9.29272 -3.03871 10.0217C-3.03871 10.7497 -2.44671 11.3427 -1.71871 11.3427H11.7623C12.8913 11.3427 13.8093 12.2597 13.8093 13.3877C13.8093 14.5157 12.8913 15.4337 11.7623 15.4337H-1.71871V15.3197H11.7623C12.8283 15.3197 13.6953 14.4527 13.6953 13.3877C13.6953 12.3227 12.8283 11.4557 11.7623 11.4557H-1.71871C-2.50971 11.4557 -3.15271 10.8127 -3.15271 10.0217C-3.15271 9.23172 -2.50971 8.58772 -1.71871 8.58772H11.7623C12.8283 8.58772 13.6953 7.72072 13.6953 6.65472C13.6953 5.58972 12.8283 4.72372 11.7623 4.72372H-1.71871C-2.50971 4.72372 -3.15271 4.07872 -3.15271 3.28772C-3.15271 2.49672 -2.50971 1.85372 -1.71871 1.85372H11.7623C12.8283 1.85372 13.6953 0.985716 13.6953 -0.0772839Z" fill="#3A3638"/>
</g>
<mask id="mask14_1_860" style="mask-type:luminance" maskUnits="userSpaceOnUse" x="5" y="3" width="11" height="7">
<path d="M5.61633 9.80898H15.0763V3.45998H5.61633V9.80898Z" fill="white"/>
</mask>
<g mask="url(#mask14_1_860)">
<path d="M13.3901 -0.0772772C13.3901 -0.975277 12.6611 -1.70528 11.7631 -1.70528H-1.71786C-2.67786 -1.70528 -3.45886 -2.48528 -3.45886 -3.44428C-3.45886 -4.40328 -2.67786 -5.18428 -1.71786 -5.18428H11.7631V-5.07028H-1.71786C-2.61586 -5.07028 -3.34586 -4.34128 -3.34586 -3.44428C-3.34586 -2.54828 -2.61586 -1.81828 -1.71786 -1.81828H11.7631C12.7231 -1.81828 13.5041 -1.03828 13.5041 -0.0772772C13.5041 0.880723 12.7231 1.66172 11.7631 1.66172H-1.71786C-2.61586 1.66172 -3.34586 2.39172 -3.34586 3.28772C-3.34586 4.18572 -2.61586 4.91472 -1.71786 4.91472H11.7631C12.7231 4.91472 13.5041 5.69572 13.5041 6.65472C13.5041 7.61372 12.7231 8.39472 11.7631 8.39472H-1.71786C-2.61586 8.39472 -3.34586 9.12372 -3.34586 10.0217C-3.34586 10.9177 -2.61586 11.6487 -1.71786 11.6487H11.7631C12.7231 11.6487 13.5041 12.4287 13.5041 13.3877C13.5041 14.3477 12.7231 15.1287 11.7631 15.1287H-1.71786V15.0147H11.7631C12.6611 15.0147 13.3901 14.2847 13.3901 13.3877C13.3901 12.4907 12.6611 11.7617 11.7631 11.7617H-1.71786C-2.67786 11.7617 -3.45886 10.9807 -3.45886 10.0217C-3.45886 9.06172 -2.67786 8.28072 -1.71786 8.28072H11.7631C12.6611 8.28072 13.3901 7.55172 13.3901 6.65472C13.3901 5.75872 12.6611 5.02872 11.7631 5.02872H-1.71786C-2.67786 5.02872 -3.45886 4.24772 -3.45886 3.28772C-3.45886 2.32872 -2.67786 1.54872 -1.71786 1.54872H11.7631C12.6611 1.54872 13.3901 0.818723 13.3901 -0.0772772Z" fill="#3A3638"/>
</g>
<mask id="mask15_1_860" style="mask-type:luminance" maskUnits="userSpaceOnUse" x="5" y="3" width="11" height="7">
<path d="M5.61633 9.80898H15.0763V3.45998H5.61633V9.80898Z" fill="white"/>
</mask>
<g mask="url(#mask15_1_860)">
<path d="M13.085 -0.0773067C13.085 -0.806307 12.492 -1.39831 11.763 -1.39831H-1.71804C-2.84604 -1.39831 -3.76404 -2.31631 -3.76404 -3.44431C-3.76404 -4.57231 -2.84604 -5.48931 -1.71804 -5.48931H11.763V-5.37631H-1.71804C-2.78404 -5.37631 -3.65104 -4.51031 -3.65104 -3.44431C-3.65104 -2.37931 -2.78404 -1.51231 -1.71804 -1.51231H11.763C12.555 -1.51231 13.198 -0.868307 13.198 -0.0773067C13.198 0.712693 12.555 1.35669 11.763 1.35669H-1.71804C-2.78404 1.35669 -3.65104 2.22369 -3.65104 3.28769C-3.65104 4.35369 -2.78404 5.22069 -1.71804 5.22069H11.763C12.555 5.22069 13.198 5.86369 13.198 6.65469C13.198 7.04969 13.037 7.40769 12.777 7.66769C12.518 7.92869 12.159 8.08969 11.763 8.08969H-1.71804C-2.78404 8.08969 -3.65104 8.95569 -3.65104 10.0217C-3.65104 11.0857 -2.78404 11.9527 -1.71804 11.9527H11.763C12.555 11.9527 13.198 12.5967 13.198 13.3877C13.198 14.1787 12.555 14.8227 11.763 14.8227H-1.71804V14.7097H11.763C12.492 14.7097 13.085 14.1157 13.085 13.3877C13.085 12.6587 12.492 12.0667 11.763 12.0667H-1.71804C-2.84604 12.0667 -3.76404 11.1507 -3.76404 10.0217C-3.76404 9.45769 -3.53504 8.94569 -3.16404 8.57569C-2.79404 8.20469 -2.28204 7.97569 -1.71804 7.97569H11.763C12.492 7.97569 13.085 7.38369 13.085 6.65469C13.085 5.92669 12.492 5.33369 11.763 5.33369H-1.71804C-2.84604 5.33369 -3.76404 4.41569 -3.76404 3.28769C-3.76404 2.15969 -2.84604 1.24269 -1.71804 1.24269H11.763C12.492 1.24269 13.085 0.651693 13.085 -0.0773067Z" fill="#3A3638"/>
</g>
<mask id="mask16_1_860" style="mask-type:luminance" maskUnits="userSpaceOnUse" x="5" y="3" width="11" height="7">
<path d="M5.61633 9.80898H15.0763V3.45998H5.61633V9.80898Z" fill="white"/>
</mask>
<g mask="url(#mask16_1_860)">
<path d="M12.7783 -0.0772762C12.7783 -0.639276 12.3233 -1.09328 11.7623 -1.09328H-1.7187C-3.0147 -1.09328 -4.0697 -2.14828 -4.0697 -3.44428C-4.0697 -4.74028 -3.0147 -5.79628 -1.7187 -5.79628H11.7623V-5.68228H-1.7187C-2.9517 -5.68228 -3.9557 -4.67828 -3.9557 -3.44428C-3.9557 -2.21128 -2.9517 -1.20728 -1.7187 -1.20728H11.7623C12.3853 -1.20728 12.8923 -0.700276 12.8923 -0.0772762C12.8923 0.543724 12.3853 1.05172 11.7623 1.05172H-1.7187C-2.9517 1.05172 -3.9557 2.05472 -3.9557 3.28772C-3.9557 4.52272 -2.9517 5.52672 -1.7187 5.52672H11.7623C12.3853 5.52672 12.8923 6.03172 12.8923 6.65472C12.8923 7.27772 12.3853 7.78372 11.7623 7.78372H-1.7187C-2.9517 7.78372 -3.9557 8.78672 -3.9557 10.0217C-3.9557 11.2557 -2.9517 12.2587 -1.7187 12.2587H11.7623C12.3853 12.2587 12.8923 12.7657 12.8923 13.3877C12.8923 14.0107 12.3853 14.5167 11.7623 14.5167H-1.7187V14.4027H11.7623C12.3233 14.4027 12.7783 13.9477 12.7783 13.3877C12.7783 12.8277 12.3233 12.3717 11.7623 12.3717H-1.7187C-3.0147 12.3717 -4.0697 11.3177 -4.0697 10.0217C-4.0697 8.72472 -3.0147 7.67072 -1.7187 7.67072H11.7623C12.3233 7.67072 12.7783 7.21472 12.7783 6.65472C12.7783 6.09472 12.3233 5.63972 11.7623 5.63972H-1.7187C-3.0147 5.63972 -4.0697 4.58472 -4.0697 3.28772C-4.0697 1.99172 -3.0147 0.938724 -1.7187 0.938724H11.7623C12.3233 0.938724 12.7783 0.481724 12.7783 -0.0772762Z" fill="#3A3638"/>
</g>
<mask id="mask17_1_860" style="mask-type:luminance" maskUnits="userSpaceOnUse" x="5" y="3" width="11" height="7">
<path d="M5.61633 9.80898H15.0763V3.45998H5.61633V9.80898Z" fill="white"/>
</mask>
<g mask="url(#mask17_1_860)">
<path d="M12.4731 -0.0772991C12.4731 -0.469299 12.1561 -0.7883 11.7631 -0.7883H-1.71788C-3.18288 -0.7883 -4.37488 -1.9793 -4.37488 -3.4443C-4.37488 -4.9093 -3.18288 -6.1003 -1.71788 -6.1003H11.7631V-5.9873H-1.71788C-3.12088 -5.9873 -4.26088 -4.8473 -4.26088 -3.4443C-4.26088 -2.0423 -3.12088 -0.901299 -1.71788 -0.901299H11.7631C12.2181 -0.901299 12.5871 -0.532299 12.5871 -0.0772991C12.5871 0.375701 12.2181 0.744701 11.7631 0.744701H-1.71788C-3.12088 0.744701 -4.26088 1.8867 -4.26088 3.2877C-4.26088 4.6907 -3.12088 5.8307 -1.71788 5.8307H11.7631C12.2181 5.8307 12.5871 6.2007 12.5871 6.6547C12.5871 7.1097 12.2181 7.4787 11.7631 7.4787H-1.71788C-3.12088 7.4787 -4.26088 8.6187 -4.26088 10.0217C-4.26088 11.4237 -3.12088 12.5637 -1.71788 12.5637V12.5657H11.7631V12.5637C12.2181 12.5637 12.5871 12.9337 12.5871 13.3877C12.5871 13.6157 12.4941 13.8207 12.3451 13.9697C12.1961 14.1197 11.9911 14.2117 11.7631 14.2117H-1.71788V14.0977H11.7631C12.1561 14.0977 12.4731 13.7787 12.4731 13.3877C12.4731 12.9957 12.1561 12.6777 11.7631 12.6777L-1.71788 12.6787C-3.18288 12.6787 -4.37488 11.4857 -4.37488 10.0217C-4.37488 8.5567 -3.18288 7.3647 -1.71788 7.3647H11.7631C12.1561 7.3647 12.4731 7.0467 12.4731 6.6547C12.4731 6.2637 12.1561 5.9437 11.7631 5.9437H-1.71788C-3.18288 5.9437 -4.37488 4.7527 -4.37488 3.2877C-4.37488 1.8237 -3.18288 0.631701 -1.71788 0.631701H11.7631C12.1561 0.631701 12.4731 0.313701 12.4731 -0.0772991Z" fill="#3A3638"/>
</g>
</svg>
